<svg width="215" height="333" viewBox="0 0 215 333" fill="none" xmlns="http://www.w3.org/2000/svg">
<path d="M61 41.3594H165C179.083 41.3594 190.5 52.7761 190.5 66.8594V114.859C190.5 145.511 165.652 170.359 135 170.359H61C46.9167 170.359 35.5 158.943 35.5 144.859V66.8594C35.5 52.7761 46.9167 41.3594 61 41.3594Z" fill="#FEF4A9" stroke="black" stroke-width="9"/>
<path d="M66 85.8594C66 85.8594 66.9508 97.8594 80.7377 97.8594C93.5738 97.8594 95 85.8594 95 85.8594" stroke="black" stroke-width="6" stroke-linecap="round"/>
<path d="M127 85.8594C127 85.8594 127.951 97.8594 141.738 97.8594C154.574 97.8594 156 85.8594 156 85.8594" stroke="black" stroke-width="6" stroke-linecap="round"/>
<path d="M106 109.859C106 109.859 106.459 121.859 113.115 121.859C119.311 121.859 120 109.859 120 109.859" stroke="black" stroke-width="6" stroke-linecap="round"/>
<path d="M103 152.859C117.167 155.693 148.2 154.959 159 129.359" stroke="black" stroke-width="6" stroke-linecap="round"/>
<path d="M44.9993 63.3602C37.1108 60.7562 33.5002 74.0954 25.4993 71.8602C18.845 70.0013 15.5961 65.4435 13.4993 58.8602C10.2857 48.7704 16.7931 41.6192 23.9993 33.8602C27.216 30.3968 30.0573 29.5998 33.4993 26.3602C41.0367 19.2661 39.7403 9.48707 48.9993 4.86023C60.0918 -0.682782 68.1421 7.82818 80.4993 8.86023C104.433 10.8591 141.999 8.86023 141.999 8.86023C141.999 8.86023 189.437 5.23532 200.499 26.3602C206.061 36.9813 210.337 46.6834 203.999 56.8602C198.076 66.3715 188.697 68.2644 177.499 67.8602C168.223 67.5254 164.635 60.5031 155.499 58.8602C144.71 56.9201 138.058 57.9132 127.499 60.8602C119.67 63.0454 116.564 68.3393 108.499 69.3602C97.1624 70.7955 91.9067 60.1836 80.4993 60.8602C69.4937 61.513 64.6541 76.1532 54.4993 71.8602C49.914 69.9218 49.7267 64.9207 44.9993 63.3602Z" fill="#A64942" stroke="black" stroke-width="6" stroke-linecap="round"/>
<path d="M101 191.359L93.5 171.859H131L125 191.359H101Z" fill="#FEF4A9" stroke="black" stroke-width="9" stroke-linecap="round"/>
<path d="M36.5 209.858C56.8057 192.058 97.5 194.859 97.5 194.859H125.5C125.5 194.859 168.934 191.313 187.5 209.858C200.181 222.524 209.5 251.859 209.5 251.859L184 268.359C184 268.359 175.945 260.764 169.5 258.359C143.923 248.817 157 327.859 157 327.859H68.5C68.5 327.859 73.7722 246.242 49 258.359C43.3844 261.106 36.5 268.359 36.5 268.359L6.5 251.859C6.5 251.859 22.3668 222.248 36.5 209.858Z" fill="#F6F6F6" stroke="black" stroke-width="9" stroke-linecap="round"/>
<path d="M15.9999 298.359C6.75572 284.177 10.4999 255.359 10.4999 255.359L32.4999 268.359C32.4999 268.359 31.5305 276.376 32.4999 281.359C36.586 302.364 81.9999 304.859 81.9999 304.859L77.4999 316.859C77.4999 316.859 29.6949 319.371 15.9999 298.359Z" fill="#FEF4A9" stroke="black" stroke-width="6" stroke-linecap="square"/>
<path d="M202 297.51C211.271 283.535 207 254.859 207 254.859L187 267.754C187 267.754 187.999 275.712 187 280.648C183.077 300.046 142 303.957 142 303.957L146.091 315.859C146.091 315.859 189.297 316.659 202 297.51Z" fill="#FEF4A9" stroke="black" stroke-width="6" stroke-linecap="square"/>
<path d="M83.0512 298.876L74 323.73C74 323.73 99.0803 332.864 103.78 319.959C108.48 307.053 83.0512 298.876 83.0512 298.876Z" fill="#D9D9D9" stroke="black" stroke-width="3" stroke-linecap="square" stroke-dasharray="5 5"/>
<path d="M151.959 322.749L143.318 296.859C143.318 296.859 118 305.31 122.486 318.752C126.973 332.195 151.959 322.749 151.959 322.749Z" fill="#D9D9D9" stroke="black" stroke-width="3" stroke-linecap="square" stroke-dasharray="5 5"/>
<path d="M57 258.859V201.859L88.5 194.859L70 283.859L57 258.859Z" fill="#FE5F55" stroke="black" stroke-width="6"/>
<path d="M165 257.859V200.859L133 193.859L151.794 282.859L165 257.859Z" fill="#FE5F55" stroke="black" stroke-width="6"/>
<path d="M100 200.859C98.0826 193.288 121.377 193.171 120 200.859C119.441 203.978 117.257 204.973 115.5 207.609L125 220.859C125 220.859 123.5 291.859 111 289.859C101.619 288.358 97.5 220.859 97.5 220.859L105.5 207.609C103.352 204.973 100.835 204.155 100 200.859Z" fill="#4BC2C5"/>
<path d="M105.5 207.609C103.352 204.973 100.835 204.155 100 200.859C98.0826 193.288 121.377 193.171 120 200.859C119.441 203.978 117.257 204.973 115.5 207.609M105.5 207.609C104.498 210.858 107.615 214.684 111 214.359C114.154 214.056 116.433 210.637 115.5 207.609M105.5 207.609C102.376 212.784 97.5 220.859 97.5 220.859C97.5 220.859 101.619 288.358 111 289.859C123.5 291.859 125 220.859 125 220.859C125 220.859 119.21 212.784 115.5 207.609" stroke="black" stroke-width="6"/>
</svg>
