<svg width="223" height="465" viewBox="0 0 223 465" fill="none" xmlns="http://www.w3.org/2000/svg">
<path d="M81.2913 403.028C81.5685 402.943 81.848 402.898 82.1169 402.893C86.7082 401.526 91.5396 400.762 95.9408 400.485C99.5378 400.262 102.879 400.365 105.56 400.732C108.605 401.151 110.985 401.98 112.271 403.158C113.417 404.205 113.875 405.479 113.531 406.958C112.94 409.453 110.558 411.428 107.051 412.808C103.646 414.152 98.9663 415.033 93.929 415.322C88.9701 415.604 83.6024 415.312 78.7227 414.297C76.8546 413.908 75.0585 413.408 73.3605 412.793C72.4829 413.479 71.6798 414.203 70.9828 414.945C69.5896 416.441 68.6475 418.014 68.3328 419.543C68.0548 420.917 68.3099 422.315 69.251 423.657C70.1057 424.875 71.4966 426.057 73.5204 427.175C74.9102 426.384 76.3978 425.688 77.9623 425.072C82.5337 423.266 87.7286 422.219 92.6885 422.062C102.942 421.737 108.844 422.711 111.488 424.213C114.595 425.976 114.923 428.268 113.113 430.684C112.05 432.104 109.918 433.437 107.066 434.461C99.6572 437.118 86.0155 438.305 73.945 433.335L73.7429 433.248C73.0585 433.764 72.4349 434.308 71.8782 434.872C70.0976 436.693 69.0104 438.799 69.019 441.115C69.0184 442.082 69.2114 443.104 69.5981 444.181C70.0867 445.531 69.325 447.048 67.8924 447.567C66.4599 448.086 64.8963 447.413 64.4015 446.07C63.8042 444.44 63.531 442.853 63.5238 441.321C63.5173 437.518 65.1792 434.168 67.9245 431.365C68.1845 431.104 68.4506 430.836 68.7305 430.58C66.9439 429.368 65.5974 428.05 64.6348 426.678C62.8467 424.137 62.3811 421.429 62.9212 418.741C63.2037 417.333 63.7767 415.952 64.5826 414.621C64.6117 414.56 64.6407 414.498 64.6767 414.442C65.5813 412.898 66.7442 411.502 68.0995 410.247C65.3325 408.453 63.2437 406.15 62.1963 403.265C61.5989 401.636 61.3258 400.048 61.3186 398.516C61.312 394.713 62.974 391.364 65.7193 388.56C65.9853 388.292 66.2584 388.03 66.5383 387.774C66.0246 387.42 65.5292 387.044 65.0661 386.659C63.0667 384.966 61.6052 382.942 60.9849 380.498C60.2347 377.533 60.8855 374.506 62.5983 371.672C62.6327 371.589 62.6741 371.513 62.7216 371.43C63.6261 369.887 64.7891 368.491 66.1443 367.235C63.3773 365.442 61.2885 363.139 60.2411 360.254C59.6437 358.624 59.3706 357.037 59.3634 355.504C59.3568 351.702 61.0188 348.352 63.7641 345.548C64.0363 345.273 64.3216 344.997 64.6138 344.727C63.2494 343.766 62.1499 342.735 61.2769 341.65C59.4447 339.356 58.6753 336.834 58.8614 334.264C59.066 331.785 60.1572 329.31 62.0476 327.025C64.3666 324.227 67.9212 321.672 72.4692 319.697C75.38 318.437 78.601 317.531 81.9457 317.153C85.0363 316.805 88.2129 316.903 91.3321 317.572C92.7953 317.886 93.6742 319.286 93.2871 320.703C92.9001 322.12 91.4044 323.007 89.9413 322.693C87.4268 322.147 84.8556 322.072 82.371 322.345C79.6391 322.654 76.9864 323.403 74.5745 324.446C70.8708 326.054 68.0496 328.036 66.3003 330.156C65.132 331.573 64.4516 333.023 64.3587 334.42C64.2611 335.738 64.6967 337.08 65.726 338.361C66.5635 339.403 67.7728 340.405 69.3976 341.329C70.7813 340.545 72.2688 339.849 73.8141 339.241C78.3855 337.435 83.5805 336.388 88.5403 336.231C98.7812 335.907 104.683 336.895 107.334 338.39C110.44 340.152 110.769 342.445 108.959 344.861C107.896 346.28 105.764 347.613 102.911 348.637C95.5029 351.295 81.8613 352.482 69.7908 347.511L69.5886 347.424C68.9042 347.941 68.2806 348.485 67.7239 349.049C65.9433 350.87 64.8623 352.969 64.8647 355.291C64.8641 356.258 65.0571 357.28 65.4438 358.357C66.2704 360.631 68.2424 362.411 70.8911 363.768C72.0706 363.081 73.3193 362.454 74.6173 361.881C76.0044 361.261 77.4607 360.701 78.9686 360.234C83.9006 358.638 89.1972 357.753 93.9779 357.454C97.581 357.224 100.916 357.334 103.597 357.701C106.642 358.12 109.022 358.949 110.308 360.128C111.454 361.174 111.912 362.449 111.568 363.928C110.977 366.423 108.595 368.397 105.088 369.777C101.683 371.121 97.0034 372.003 91.9662 372.292C87.0073 372.574 81.6395 372.281 76.7598 371.266C74.8917 370.877 73.1025 370.383 71.4176 369.767C70.5706 370.417 69.7983 371.106 69.1258 371.819C66.886 374.188 65.7551 376.766 66.3336 379.062C66.6778 380.412 67.564 381.608 68.8156 382.658C69.5418 383.269 70.3832 383.831 71.3205 384.35C72.7103 383.559 74.1979 382.864 75.7624 382.247C80.3338 380.441 85.5287 379.394 90.4886 379.237C100.742 378.912 106.644 379.886 109.288 381.388C112.395 383.151 112.723 385.443 110.913 387.859C109.85 389.279 107.718 390.612 104.866 391.636C97.4573 394.293 83.8157 395.48 71.7451 390.51L71.543 390.423C70.8586 390.939 70.235 391.483 69.6783 392.047C67.8977 393.868 66.8166 395.967 66.8191 398.29C66.8185 399.257 67.0115 400.279 67.3982 401.356C68.2248 403.629 70.1967 405.41 72.8455 406.767C73.3021 406.501 73.7725 406.248 74.243 405.994C76.4364 404.814 78.8298 403.792 81.2913 403.028ZM81.1767 364.947C80.9925 365.05 80.7945 365.14 80.5749 365.2C79.6597 365.481 78.7791 365.791 77.9201 366.133L78.1061 366.169C82.474 367.079 87.3278 367.34 91.842 367.085C96.2839 366.831 100.322 366.08 103.175 364.958C104.355 364.494 105.246 364.031 105.752 363.597C105.065 363.318 103.987 363.074 102.617 362.89C100.287 362.563 97.3604 362.482 94.1489 362.676C89.9905 362.951 85.4126 363.672 81.1767 364.947ZM75.9402 344.008C85.5296 346.81 95.4919 345.788 101.178 343.749C102.258 343.361 103.12 342.973 103.722 342.608C101.457 341.73 96.6732 341.219 88.5294 341.483C84.277 341.615 79.8468 342.5 75.9402 344.008ZM77.8892 387.027C87.4786 389.829 97.4409 388.807 103.127 386.768C104.207 386.379 105.07 385.991 105.671 385.627C103.406 384.748 98.6222 384.238 90.4784 384.502C86.2329 384.639 81.7959 385.519 77.8892 387.027ZM79.7762 409.134C79.8761 409.158 79.9691 409.176 80.069 409.199C84.4369 410.11 89.2907 410.37 93.8049 410.116C98.2468 409.861 102.285 409.111 105.138 407.988C106.318 407.525 107.209 407.062 107.714 406.628C107.028 406.348 105.95 406.105 104.58 405.921C102.249 405.594 99.3233 405.513 96.1118 405.707C90.8142 406.033 84.8466 407.111 79.7762 409.134ZM80.0883 429.839C89.6777 432.641 99.64 431.619 105.326 429.579C106.406 429.191 107.269 428.803 107.87 428.439C105.605 427.56 100.821 427.05 92.6775 427.313C88.432 427.451 83.995 428.33 80.0883 429.839Z" fill="#293462"/>
<path d="M145.752 369.095C145.478 369.172 145.2 369.209 144.933 369.207C140.392 370.441 135.596 371.072 131.217 371.233C127.638 371.361 124.305 371.173 121.624 370.742C118.578 370.249 116.185 369.368 114.873 368.169C113.703 367.105 113.214 365.833 113.519 364.38C114.044 361.928 116.367 360.037 119.827 358.762C123.186 357.521 127.827 356.77 132.84 356.613C137.775 356.462 143.133 356.889 148.022 358.018C149.894 358.451 151.697 358.992 153.405 359.643C154.262 358.988 155.044 358.292 155.719 357.577C157.07 356.133 157.968 354.602 158.242 353.098C158.484 351.747 158.194 350.358 157.221 349.007C156.338 347.78 154.922 346.575 152.876 345.418C151.511 346.165 150.046 346.814 148.503 347.384C143.993 349.052 138.843 349.954 133.903 349.981C123.692 350.039 117.786 348.924 115.112 347.371C111.97 345.548 111.583 343.272 113.325 340.93C114.348 339.554 116.439 338.29 119.256 337.351C126.571 334.914 140.136 334.091 152.294 339.317L152.498 339.408C153.167 338.914 153.774 338.393 154.315 337.849C156.042 336.095 157.072 334.04 157.004 331.75C156.979 330.794 156.761 329.778 156.348 328.704C155.826 327.356 156.546 325.876 157.961 325.399C159.375 324.923 160.951 325.628 161.478 326.969C162.116 328.596 162.429 330.173 162.475 331.688C162.58 335.448 161.009 338.718 158.345 341.419C158.093 341.67 157.835 341.928 157.562 342.174C159.374 343.419 160.75 344.756 161.745 346.139C163.592 348.697 164.126 351.387 163.656 354.03C163.411 355.415 162.876 356.766 162.107 358.061C162.079 358.121 162.052 358.182 162.017 358.236C161.155 359.739 160.032 361.089 158.714 362.296C161.518 364.141 163.659 366.472 164.777 369.351C165.414 370.978 165.727 372.555 165.774 374.07C165.878 377.83 164.308 381.1 161.644 383.801C161.386 384.059 161.12 384.311 160.848 384.557C161.369 384.921 161.872 385.305 162.344 385.698C164.38 387.423 165.889 389.463 166.57 391.895C167.394 394.846 166.823 397.822 165.189 400.581C165.156 400.661 165.117 400.736 165.072 400.817C164.21 402.32 163.087 403.67 161.769 404.877C164.572 406.721 166.714 409.052 167.832 411.932C168.469 413.559 168.782 415.135 168.829 416.651C168.933 420.411 167.363 423.68 164.699 426.382C164.434 426.647 164.157 426.912 163.873 427.172C165.257 428.157 166.38 429.205 167.278 430.301C169.163 432.616 169.994 435.129 169.875 437.666C169.735 440.112 168.711 442.531 166.886 444.742C164.646 447.449 161.169 449.884 156.687 451.72C153.819 452.891 150.632 453.704 147.308 453.992C144.237 454.256 141.068 454.078 137.942 453.336C136.476 452.988 135.564 451.581 135.913 450.19C136.263 448.798 137.73 447.96 139.197 448.308C141.717 448.913 144.281 449.053 146.751 448.847C149.465 448.611 152.09 447.939 154.467 446.97C158.117 445.475 160.878 443.588 162.567 441.536C163.695 440.166 164.335 438.749 164.392 437.37C164.455 436.069 163.987 434.731 162.928 433.438C162.067 432.386 160.835 431.364 159.192 430.409C157.834 431.149 156.369 431.798 154.844 432.36C150.335 434.028 145.184 434.93 140.245 434.958C130.047 435.014 124.139 433.886 121.459 432.34C118.317 430.517 117.931 428.242 119.673 425.9C120.696 424.523 122.786 423.26 125.603 422.321C132.918 419.884 146.484 419.061 158.642 424.286L158.845 424.377C159.514 423.884 160.122 423.362 160.662 422.819C162.39 421.064 163.413 419.016 163.351 416.72C163.327 415.763 163.108 414.748 162.695 413.673C161.813 411.404 159.802 409.593 157.127 408.183C155.969 408.831 154.741 409.42 153.462 409.952C152.095 410.53 150.658 411.047 149.167 411.47C144.293 412.921 139.037 413.66 134.28 413.832C130.695 413.967 127.368 413.773 124.687 413.341C121.641 412.848 119.247 411.967 117.936 410.769C116.766 409.704 116.277 408.433 116.582 406.979C117.107 404.527 119.43 402.636 122.89 401.362C126.249 400.12 130.89 399.369 135.903 399.213C140.838 399.061 146.196 399.489 151.085 400.618C152.957 401.05 154.753 401.585 156.448 402.237C157.275 401.617 158.027 400.955 158.679 400.268C160.851 397.982 161.911 395.463 161.276 393.178C160.898 391.834 159.984 390.629 158.71 389.558C157.97 388.935 157.117 388.358 156.17 387.82C154.805 388.567 153.34 389.216 151.797 389.786C147.287 391.454 142.136 392.356 137.197 392.383C126.986 392.441 121.079 391.326 118.405 389.772C115.264 387.95 114.877 385.674 116.619 383.332C117.642 381.956 119.733 380.692 122.549 379.753C129.865 377.316 143.43 376.493 155.588 381.719L155.792 381.81C156.461 381.316 157.068 380.795 157.608 380.251C159.336 378.497 160.36 376.449 160.297 374.152C160.273 373.196 160.055 372.18 159.642 371.106C158.759 368.836 156.748 367.025 154.073 365.615C153.625 365.866 153.163 366.105 152.7 366.343C150.545 367.454 148.185 368.403 145.752 369.095ZM146.845 406.752C147.026 406.656 147.221 406.571 147.439 406.518C148.344 406.264 149.213 405.979 150.061 405.664L149.874 405.624C145.498 404.611 140.653 404.229 136.161 404.364C131.74 404.501 127.735 405.14 124.92 406.176C123.756 406.604 122.88 407.039 122.388 407.456C123.079 407.749 124.16 408.018 125.53 408.235C127.861 408.618 130.779 408.774 133.975 408.664C138.112 408.499 142.656 407.904 146.845 406.752ZM152.603 427.592C142.973 424.574 133.071 425.329 127.456 427.199C126.39 427.555 125.54 427.917 124.95 428.261C127.23 429.188 132.011 429.816 140.121 429.765C144.356 429.744 148.748 428.983 152.603 427.592ZM149.554 385.004C139.925 381.987 130.022 382.741 124.407 384.612C123.341 384.968 122.491 385.329 121.901 385.674C124.182 386.601 128.962 387.229 137.072 387.178C141.3 387.151 145.699 386.395 149.554 385.004ZM147.105 363.096C147.005 363.07 146.912 363.05 146.811 363.024C142.435 362.012 137.59 361.629 133.098 361.765C128.677 361.902 124.672 362.54 121.857 363.577C120.693 364.005 119.817 364.44 119.325 364.856C120.016 365.15 121.097 365.419 122.467 365.636C124.798 366.019 127.716 366.175 130.912 366.065C136.184 365.878 142.104 364.966 147.105 363.096ZM146.261 342.615C136.632 339.598 126.729 340.352 121.114 342.223C120.049 342.579 119.199 342.94 118.609 343.285C120.889 344.212 125.67 344.84 133.779 344.789C138.007 344.762 142.407 344.006 146.261 342.615Z" fill="#293462"/>
<path d="M61 41.3594H165C179.083 41.3594 190.5 52.7761 190.5 66.8594V114.859C190.5 145.511 165.652 170.359 135 170.359H61C46.9167 170.359 35.5 158.943 35.5 144.859V66.8594C35.5 52.7761 46.9167 41.3594 61 41.3594Z" fill="#FEF4A9" stroke="black" stroke-width="9"/>
<path d="M66 85.8594C66 85.8594 66.9508 97.8594 80.7377 97.8594C93.5738 97.8594 95 85.8594 95 85.8594" stroke="black" stroke-width="6" stroke-linecap="round"/>
<path d="M127 85.8594C127 85.8594 127.951 97.8594 141.738 97.8594C154.574 97.8594 156 85.8594 156 85.8594" stroke="black" stroke-width="6" stroke-linecap="round"/>
<path d="M106 109.859C106 109.859 106.459 121.859 113.115 121.859C119.311 121.859 120 109.859 120 109.859" stroke="black" stroke-width="6" stroke-linecap="round"/>
<path d="M103 152.859C117.167 155.693 148.2 154.959 159 129.359" stroke="black" stroke-width="6" stroke-linecap="round"/>
<path d="M44.9993 63.3602C37.1108 60.7562 33.5002 74.0954 25.4993 71.8602C18.845 70.0013 15.5961 65.4435 13.4993 58.8602C10.2857 48.7704 16.7931 41.6192 23.9993 33.8602C27.216 30.3968 30.0573 29.5998 33.4993 26.3602C41.0367 19.2661 39.7403 9.48707 48.9993 4.86023C60.0918 -0.682782 68.1421 7.82818 80.4993 8.86023C104.433 10.8591 141.999 8.86023 141.999 8.86023C141.999 8.86023 189.437 5.23532 200.499 26.3602C206.061 36.9813 210.337 46.6834 203.999 56.8602C198.076 66.3715 188.697 68.2644 177.499 67.8602C168.223 67.5254 164.635 60.5031 155.499 58.8602C144.71 56.9201 138.058 57.9132 127.499 60.8602C119.67 63.0454 116.564 68.3393 108.499 69.3602C97.1624 70.7955 91.9067 60.1836 80.4993 60.8602C69.4937 61.513 64.6541 76.1532 54.4993 71.8602C49.914 69.9218 49.7267 64.9207 44.9993 63.3602Z" fill="#A64942" stroke="black" stroke-width="6" stroke-linecap="round"/>
<path d="M101 191.359L93.5 171.859H131L125 191.359H101Z" fill="#FEF4A9" stroke="black" stroke-width="9" stroke-linecap="round"/>
<path d="M36.5 209.858C56.8057 192.058 97.5 194.859 97.5 194.859H125.5C125.5 194.859 168.934 191.313 187.5 209.858C200.181 222.524 209.5 251.859 209.5 251.859L184 268.359C184 268.359 175.945 260.764 169.5 258.359C143.923 248.817 157 327.859 157 327.859H68.5C68.5 327.859 73.7722 246.242 49 258.359C43.3844 261.106 36.5 268.359 36.5 268.359L6.5 251.859C6.5 251.859 22.3668 222.248 36.5 209.858Z" fill="#F6F6F6" stroke="black" stroke-width="9" stroke-linecap="round"/>
<path d="M15.9999 298.359C6.75572 284.177 10.4999 255.359 10.4999 255.359L32.4999 268.359C32.4999 268.359 31.5305 276.376 32.4999 281.359C36.586 302.364 81.9999 304.859 81.9999 304.859L77.4999 316.859C77.4999 316.859 29.6949 319.371 15.9999 298.359Z" fill="#FEF4A9" stroke="black" stroke-width="6" stroke-linecap="square"/>
<path d="M202 297.51C211.271 283.535 207 254.859 207 254.859L187 267.754C187 267.754 187.999 275.712 187 280.648C183.077 300.046 142 303.957 142 303.957L146.091 315.859C146.091 315.859 189.297 316.659 202 297.51Z" fill="#FEF4A9" stroke="black" stroke-width="6" stroke-linecap="square"/>
<path d="M83.0512 298.876L74 323.73C74 323.73 99.0803 332.864 103.78 319.959C108.48 307.053 83.0512 298.876 83.0512 298.876Z" fill="#D9D9D9" stroke="black" stroke-width="3" stroke-linecap="square" stroke-dasharray="5 5"/>
<path d="M151.959 322.749L143.318 296.859C143.318 296.859 118 305.31 122.486 318.752C126.973 332.195 151.959 322.749 151.959 322.749Z" fill="#D9D9D9" stroke="black" stroke-width="3" stroke-linecap="square" stroke-dasharray="5 5"/>
<path d="M57 258.859V201.859L88.5 194.859L70 283.859L57 258.859Z" fill="#FE5F55" stroke="black" stroke-width="6"/>
<path d="M165 257.859V200.859L133 193.859L151.794 282.859L165 257.859Z" fill="#FE5F55" stroke="black" stroke-width="6"/>
<path d="M100 200.859C98.0826 193.288 121.377 193.171 120 200.859C119.441 203.978 117.257 204.973 115.5 207.609L125 220.859C125 220.859 123.5 291.859 111 289.859C101.619 288.358 97.5 220.859 97.5 220.859L105.5 207.609C103.352 204.973 100.835 204.155 100 200.859Z" fill="#4BC2C5"/>
<path d="M105.5 207.609C103.352 204.973 100.835 204.155 100 200.859C98.0826 193.288 121.377 193.171 120 200.859C119.441 203.978 117.257 204.973 115.5 207.609M105.5 207.609C104.498 210.858 107.615 214.684 111 214.359C114.154 214.056 116.433 210.637 115.5 207.609M105.5 207.609C102.376 212.784 97.5 220.859 97.5 220.859C97.5 220.859 101.619 288.358 111 289.859C123.5 291.859 125 220.859 125 220.859C125 220.859 119.21 212.784 115.5 207.609" stroke="black" stroke-width="6"/>
</svg>
