<svg width="669" height="643" viewBox="0 0 669 643" fill="none" xmlns="http://www.w3.org/2000/svg">
<circle cx="338" cy="316" r="243.5" fill="#FFDD00" stroke="#FBFF00" stroke-width="39"/>
<path d="M80 144.146C81.9509 141.96 84.3858 136.592 87.8108 129.382C90.0755 124.615 94.4041 120.941 98.0785 117.754C101.225 115.025 103.704 111.157 106.392 108.341C109.085 105.519 112.255 102.356 114.584 99.298C117.533 95.4241 122.992 90.1525 126.927 86.3388C129.6 83.7483 132.057 80.8382 134.994 78.88C137.889 76.9501 140.125 74.2376 144.4 70.2112C148.071 66.7546 151.61 64.9526 154.796 62.7451C158.93 59.8813 164.562 55.169 167.389 51.9934C169.636 49.4691 172.145 47.1015 175.086 44.2926C179.114 40.4458 183.146 40.2515 187.671 38.7847C191.544 37.5295 195.614 36.8339 198.922 35.6054C202.766 34.1778 207.349 34.3843 211.628 33.4052C217.783 31.997 222.266 31.4507 225.812 30.4716C229.134 29.5544 234.954 27.0649 239.868 25.3377C243.898 23.9211 247.935 23.8672 251.602 23.2585C255.245 22.6538 261.591 20.9483 266.883 18.8618C267.745 18.4914 268.471 18.2494 270.902 18.1247C273.333 18 277.448 18 281.687 18" stroke="#FE5F55" stroke-width="35" stroke-linecap="round"/>
<path d="M438.968 17.9316C442.867 18.5782 453.27 21.1839 465.701 22.4966C475.981 23.5821 489.829 28.3546 501.3 33.2625C509.771 36.8868 517.297 41.4422 521.891 46.6439C527.172 52.6221 533.637 59.0359 540.171 66.8825C545.629 73.4378 549.977 80.5872 556.491 86.1611C562.841 91.594 570.196 96.927 576.739 104.431C585.11 114.03 589.161 121.731 596.331 129.577C597.664 133.486 598.957 137.424 601.239 141.332C602.229 143.301 602.875 145.241 603.541 147.239" stroke="#3B9A9C" stroke-width="35" stroke-linecap="round"/>
<path d="M650.563 260.873C650.563 263.459 650.563 291.3 650.239 332.433C650.067 354.425 644.685 394.413 642.089 417.257C641.115 425.833 632.969 433.244 628.698 441.414C623.753 450.873 619.881 458.714 614.014 465.258C612.045 469.803 609.439 473.761 605.53 476.367C603.561 477.679 601.622 478.972 597.664 480.305" stroke="#96F7D2" stroke-width="35" stroke-linecap="round"/>
<path d="M331.211 625.287C346.101 625.287 376.234 623.994 387.332 623.005C397.235 622.122 408.874 620.076 417.71 619.086C428.029 617.931 438.262 615.491 446.775 613.542C454.837 611.695 462.439 608.32 470.285 605.382C478.948 602.137 487.242 595.272 495.109 589.718C497.078 586.142 499.683 583.497 503.592 581.871C505.561 580.891 507.501 579.598 513.417 574.348" stroke="#F5B5FC" stroke-width="35" stroke-linecap="round"/>
<path d="M39.289 241.281C36.6833 243.221 35.3706 252.331 33.4212 263.763C30.6932 279.761 28.1999 290.222 23.6349 303.271C19.5349 314.99 18.4038 325.488 18.061 382.119C17.9521 400.103 24.2423 407.775 27.5239 415.622C28.1803 417.591 28.8268 419.53 30.1297 421.176C31.4326 422.822 33.3722 424.115 35.3706 425.447" stroke="#FEF4A9" stroke-width="35" stroke-linecap="round"/>
<path d="M80 514C80.6465 517.899 88.4246 529.595 98.5831 539.44C104.463 545.138 111.308 549.893 117.529 556.75C123.75 563.608 129.607 570.778 136.788 578.301C143.429 585.26 152.452 587.784 160.298 591.046C171.506 595.705 181.84 603.458 189.686 607.699C193.595 609.335 198.18 610.001 203.068 610.325C205.37 610.648 207.309 611.294 209.308 611.96" stroke="#293462" stroke-width="35" stroke-linecap="round"/>
</svg>
