<svg width="219" height="158" viewBox="0 0 219 158" fill="none" xmlns="http://www.w3.org/2000/svg">
<path d="M77.2913 96.1683C77.5685 96.0838 77.848 96.0385 78.1169 96.0337C82.7082 94.6667 87.5396 93.9029 91.9408 93.6259C95.5378 93.4025 98.8788 93.5052 101.56 93.8723C104.605 94.2915 106.985 95.1203 108.271 96.299C109.417 97.3458 109.875 98.62 109.531 100.099C108.94 102.594 106.558 104.569 103.051 105.948C99.646 107.292 94.9663 108.174 89.929 108.463C84.9701 108.745 79.6024 108.452 74.7227 107.437C72.8546 107.049 71.0585 106.548 69.3605 105.934C68.4829 106.619 67.6798 107.344 66.9828 108.085C65.5896 109.581 64.6475 111.154 64.3328 112.683C64.0548 114.058 64.3099 115.456 65.251 116.797C66.1057 118.016 67.4966 119.198 69.5204 120.316C70.9102 119.524 72.3978 118.829 73.9623 118.212C78.5337 116.406 83.7286 115.359 88.6885 115.202C98.9424 114.877 104.844 115.852 107.488 117.354C110.595 119.116 110.923 121.409 109.113 123.825C108.05 125.244 105.918 126.577 103.066 127.601C95.6572 130.259 82.0155 131.446 69.945 126.475L69.7429 126.388C69.0585 126.905 68.4349 127.449 67.8782 128.013C66.0976 129.834 65.0104 131.94 65.019 134.255C65.0184 135.223 65.2114 136.245 65.5981 137.321C66.0867 138.672 65.325 140.189 63.8924 140.708C62.4599 141.227 60.8963 140.554 60.4015 139.211C59.8042 137.581 59.531 135.994 59.5238 134.461C59.5173 130.659 61.1792 127.309 63.9245 124.505C64.1845 124.245 64.4506 123.977 64.7305 123.721C62.9439 122.509 61.5974 121.191 60.6348 119.818C58.8467 117.277 58.3811 114.569 58.9212 111.881C59.2037 110.474 59.7767 109.092 60.5826 107.762C60.6117 107.7 60.6407 107.638 60.6767 107.582C61.5813 106.039 62.7442 104.643 64.0995 103.388C61.3325 101.594 59.2437 99.291 58.1963 96.406C57.5989 94.7762 57.3258 93.189 57.3186 91.6566C57.312 87.854 58.974 84.5044 61.7193 81.7006C61.9853 81.4328 62.2584 81.171 62.5383 80.9151C62.0246 80.5607 61.5292 80.1848 61.0661 79.7994C59.0667 78.1068 57.6052 76.0821 56.9849 73.6384C56.2347 70.6737 56.8855 67.6467 58.5983 64.8122C58.6327 64.7301 58.6741 64.6539 58.7216 64.5706C59.6261 63.0272 60.7891 61.6313 62.1443 60.3758C59.3773 58.5822 57.2885 56.2793 56.2411 53.3943C55.6437 51.7644 55.3706 50.1773 55.3634 48.6448C55.3568 44.8423 57.0188 41.4926 59.7641 38.6888C60.0363 38.4139 60.3216 38.1378 60.6138 37.8677C59.2494 36.9066 58.1499 35.8753 57.2769 34.7904C55.4447 32.497 54.6753 29.9748 54.8614 27.4048C55.066 24.9252 56.1572 22.4502 58.0476 20.1653C60.3666 17.3676 63.9212 14.8123 68.4692 12.8373C71.38 11.5778 74.601 10.6716 77.9457 10.2937C81.0363 9.94554 84.2129 10.0435 87.3321 10.7127C88.7953 11.0264 89.6742 12.4266 89.2871 13.8437C88.9001 15.2609 87.4044 16.1476 85.9413 15.8339C83.4268 15.2871 80.8556 15.2128 78.371 15.4858C75.6391 15.7946 72.9864 16.5436 70.5745 17.5865C66.8708 19.1948 64.0496 21.1764 62.3003 23.2971C61.132 24.7132 60.4516 26.1637 60.3587 27.5605C60.2611 28.8789 60.6967 30.2208 61.726 31.502C62.5635 32.5441 63.7728 33.5456 65.3976 34.4697C66.7813 33.6853 68.2688 32.9901 69.8141 32.3817C74.3855 30.5757 79.5805 29.5287 84.5403 29.3717C94.7812 29.048 100.683 30.0353 103.334 31.5303C106.44 33.2928 106.769 35.5855 104.959 38.0012C103.896 39.4208 101.764 40.7539 98.9113 41.7778C91.5029 44.4352 77.8613 45.6222 65.7908 40.6517L65.5886 40.5649C64.9042 41.0815 64.2806 41.6253 63.7239 42.1894C61.9433 44.0102 60.8623 46.1093 60.8647 48.4318C60.8641 49.3991 61.0571 50.4211 61.4438 51.4977C62.2704 53.7712 64.2424 55.5519 66.8911 56.9088C68.0706 56.222 69.3193 55.5947 70.6173 55.0221C72.0044 54.4019 73.4607 53.8412 74.9686 53.3744C79.9006 51.7789 85.1972 50.8937 89.9779 50.5951C93.581 50.3646 96.9159 50.4745 99.5967 50.8415C102.642 51.2608 105.022 52.0895 106.308 53.2683C107.454 54.315 107.912 55.5892 107.568 57.0682C106.977 59.5633 104.595 61.5377 101.088 62.9175C97.6832 64.2616 93.0034 65.1432 87.9662 65.4323C83.0073 65.7142 77.6395 65.4216 72.7598 64.4067C70.8917 64.0181 69.1025 63.5235 67.4176 62.9076C66.5706 63.5574 65.7983 64.2465 65.1258 64.9594C62.886 67.3288 61.7551 69.9061 62.3336 72.2023C62.6778 73.5526 63.564 74.7482 64.8156 75.7985C65.5418 76.4098 66.3832 76.9712 67.3205 77.4909C68.7103 76.6994 70.1979 76.0042 71.7624 75.3875C76.3338 73.5815 81.5287 72.5345 86.4886 72.3774C96.7425 72.0526 102.644 73.0268 105.288 74.5289C108.395 76.2915 108.723 78.5841 106.913 80.9998C105.85 82.4195 103.718 83.7526 100.866 84.7765C93.4573 87.4338 79.8157 88.6209 67.7451 83.6504L67.543 83.5636C66.8586 84.0801 66.235 84.624 65.6783 85.1881C63.8977 87.0089 62.8166 89.108 62.8191 91.4304C62.8185 92.3977 63.0115 93.4197 63.3982 94.4964C64.2248 96.7699 66.1967 98.5505 68.8455 99.9075C69.3021 99.642 69.7725 99.3885 70.243 99.135C72.4364 97.9542 74.8298 96.9328 77.2913 96.1683ZM77.1767 58.0879C76.9925 58.1902 76.7945 58.2807 76.5749 58.3402C75.6597 58.6212 74.7791 58.932 73.9201 59.2737L74.1061 59.3093C78.474 60.2197 83.3278 60.4803 87.842 60.2258C92.2839 59.9713 96.3217 59.2208 99.1751 58.0981C100.355 57.635 101.246 57.172 101.752 56.7376C101.065 56.4582 99.9869 56.2145 98.617 56.0304C96.2865 55.7038 93.3604 55.6224 90.1489 55.8171C85.9905 56.0917 81.4126 56.8126 77.1767 58.0879ZM71.9402 37.1487C81.5296 39.9508 91.4919 38.9288 97.1783 36.8894C98.2577 36.5012 99.1205 36.1132 99.7221 35.7489C97.4567 34.8702 92.6732 34.3597 84.5294 34.6234C80.277 34.7553 75.8468 35.6403 71.9402 37.1487ZM73.8892 80.1676C83.4786 82.9697 93.4409 81.9477 99.1273 79.9082C100.207 79.5201 101.07 79.132 101.671 78.7678C99.4058 77.8891 94.6222 77.3786 86.4784 77.6423C82.2329 77.7801 77.7959 78.6592 73.8892 80.1676ZM75.7762 102.275C75.8761 102.298 75.9691 102.316 76.069 102.34C80.4369 103.25 85.2907 103.511 89.8049 103.257C94.2468 103.002 98.2846 102.252 101.138 101.129C102.318 100.666 103.209 100.203 103.714 99.7684C103.028 99.4889 101.95 99.2453 100.58 99.0612C98.2494 98.7345 95.3233 98.6531 92.1118 98.8478C86.8142 99.1739 80.8466 100.252 75.7762 102.275ZM76.0883 122.979C85.6777 125.781 95.64 124.759 101.326 122.72C102.406 122.332 103.269 121.944 103.87 121.58C101.605 120.701 96.8213 120.19 88.6775 120.454C84.432 120.592 79.995 121.471 76.0883 122.979Z" fill="#293462"/>
<path d="M141.752 62.2359C141.478 62.3124 141.2 62.35 140.933 62.3478C136.392 63.5814 131.596 64.2124 127.217 64.3732C123.638 64.5015 120.305 64.314 117.624 63.8822C114.578 63.3893 112.185 62.5087 110.873 61.31C109.703 60.2455 109.214 58.9738 109.519 57.5203C110.044 55.0683 112.367 53.1772 115.827 51.903C119.186 50.6616 123.827 49.9102 128.84 49.7539C133.775 49.6026 139.133 50.03 144.022 51.159C145.894 51.5913 147.697 52.1324 149.405 52.7839C150.262 52.1286 151.044 51.4326 151.719 50.7174C153.07 49.2741 153.968 47.7428 154.242 46.2391C154.484 44.8873 154.194 43.4985 153.221 42.1474C152.338 40.9209 150.922 39.7161 148.876 38.5586C147.511 39.3056 146.046 39.9547 144.503 40.5243C139.993 42.1925 134.843 43.0942 129.903 43.122C119.692 43.1795 113.786 42.0644 111.112 40.5111C107.97 38.6884 107.583 36.413 109.325 34.0709C110.348 32.6945 112.439 31.4311 115.256 30.4921C122.571 28.055 136.136 27.232 148.294 32.4572L148.498 32.5483C149.167 32.0551 149.774 31.5334 150.315 30.9899C152.042 29.2353 153.072 27.1806 153.004 24.891C152.979 23.9345 152.761 22.919 152.348 21.8445C151.826 20.4967 152.546 19.0161 153.961 18.5397C155.375 18.0633 156.951 18.769 157.478 20.1098C158.116 21.7368 158.429 23.3132 158.475 24.8287C158.58 28.5888 157.009 31.8582 154.345 34.5601C154.093 34.8111 153.835 35.069 153.562 35.3148C155.374 36.5592 156.75 37.897 157.745 39.2792C159.592 41.8377 160.126 44.5272 159.656 47.1711C159.411 48.5556 158.876 49.9069 158.107 51.2017C158.079 51.2621 158.052 51.3226 158.017 51.3769C157.155 52.8798 156.032 54.2301 154.714 55.4368C157.518 57.2814 159.659 59.6123 160.777 62.4919C161.414 64.1189 161.727 65.6953 161.774 67.2107C161.878 70.9709 160.308 74.2403 157.644 76.9421C157.386 77.2 157.12 77.4519 156.848 77.6977C157.369 78.0614 157.872 78.4458 158.344 78.8388C160.38 80.5638 161.889 82.6034 162.57 85.0357C163.394 87.9866 162.823 90.9629 161.189 93.7217C161.156 93.802 161.117 93.8762 161.072 93.9573C160.21 95.4602 159.087 96.8105 157.769 98.0172C160.572 99.8618 162.714 102.193 163.832 105.072C164.469 106.699 164.782 108.276 164.829 109.791C164.933 113.551 163.363 116.821 160.699 119.523C160.434 119.787 160.157 120.053 159.873 120.313C161.257 121.298 162.38 122.346 163.278 123.441C165.163 125.756 165.994 128.27 165.875 130.806C165.735 133.253 164.711 135.672 162.886 137.883C160.646 140.59 157.169 143.025 152.687 144.861C149.819 146.031 146.632 146.844 143.308 147.132C140.237 147.397 137.068 147.218 133.942 146.477C132.476 146.129 131.564 144.722 131.913 143.33C132.263 141.939 133.73 141.101 135.197 141.448C137.717 142.054 140.281 142.193 142.751 141.987C145.465 141.752 148.09 141.08 150.467 140.111C154.117 138.616 156.878 136.729 158.567 134.677C159.695 133.307 160.335 131.89 160.392 130.511C160.455 129.21 159.987 127.872 158.928 126.578C158.067 125.526 156.835 124.505 155.192 123.55C153.834 124.29 152.369 124.939 150.844 125.501C146.335 127.169 141.184 128.071 136.245 128.098C126.047 128.155 120.139 127.027 117.459 125.481C114.317 123.658 113.931 121.382 115.673 119.04C116.696 117.664 118.786 116.401 121.603 115.461C128.918 113.024 142.484 112.201 154.642 117.427L154.845 117.518C155.514 117.024 156.122 116.503 156.662 115.959C158.39 114.205 159.413 112.157 159.351 109.86C159.327 108.904 159.108 107.888 158.695 106.814C157.813 104.545 155.802 102.733 153.127 101.323C151.969 101.972 150.741 102.56 149.462 103.093C148.095 103.671 146.658 104.188 145.167 104.61C140.293 106.061 135.037 106.8 130.28 106.973C126.695 107.108 123.368 106.913 120.687 106.482C117.641 105.989 115.247 105.108 113.936 103.909C112.766 102.845 112.277 101.573 112.582 100.12C113.107 97.6677 115.43 95.7766 118.89 94.5025C122.249 93.261 126.89 92.5096 131.903 92.3533C136.838 92.202 142.196 92.6294 147.085 93.7584C148.957 94.1907 150.753 94.7258 152.448 95.3781C153.275 94.7573 154.027 94.0958 154.679 93.4083C156.851 91.123 157.911 88.6036 157.276 86.3182C156.898 84.9742 155.984 83.7692 154.71 82.6985C153.97 82.0753 153.117 81.4986 152.17 80.9606C150.805 81.7075 149.34 82.3567 147.797 82.9262C143.287 84.5944 138.136 85.4962 133.197 85.5239C122.986 85.5814 117.079 84.4663 114.405 82.9131C111.264 81.0904 110.877 78.8149 112.619 76.4728C113.642 75.0964 115.733 73.8331 118.549 72.894C125.865 70.4569 139.43 69.6339 151.588 74.8592L151.792 74.9502C152.461 74.457 153.068 73.9353 153.608 73.3918C155.336 71.6372 156.36 69.5895 156.297 67.2929C156.273 66.3365 156.055 65.321 155.642 64.2464C154.759 61.9771 152.748 60.1657 150.073 58.7558C149.625 59.0065 149.163 59.2451 148.7 59.4837C146.545 60.5949 144.185 61.5433 141.752 62.2359ZM142.845 99.8929C143.026 99.7965 143.221 99.7121 143.439 99.6589C144.344 99.4045 145.213 99.1199 146.061 98.8042L145.874 98.7641C141.498 97.7516 136.653 97.3691 132.161 97.5047C127.74 97.6421 123.735 98.2804 120.92 99.3171C119.756 99.7447 118.88 100.18 118.388 100.596C119.079 100.89 120.16 101.159 121.53 101.376C123.861 101.759 126.779 101.915 129.975 101.805C134.112 101.64 138.656 101.045 142.845 99.8929ZM148.603 120.732C138.973 117.715 129.071 118.469 123.456 120.34C122.39 120.696 121.54 121.057 120.95 121.402C123.23 122.329 128.011 122.957 136.121 122.906C140.356 122.885 144.748 122.123 148.603 120.732ZM145.554 78.1449C135.925 75.1276 126.022 75.882 120.407 77.7524C119.341 78.1084 118.491 78.47 117.901 78.8147C120.182 79.7418 124.962 80.3696 133.072 80.3183C137.3 80.2912 141.699 79.536 145.554 78.1449ZM143.105 56.2369C143.005 56.2108 142.912 56.1908 142.811 56.1647C138.435 55.1522 133.59 54.7697 129.098 54.9053C124.677 55.0427 120.672 55.6809 117.857 56.7176C116.693 57.1452 115.817 57.5802 115.325 57.9967C116.016 58.2907 117.097 58.5593 118.467 58.7766C120.798 59.1595 123.716 59.3152 126.912 59.2053C132.184 59.0191 138.104 58.1065 143.105 56.2369ZM142.261 35.756C132.632 32.7387 122.729 33.493 117.114 35.3634C116.049 35.7195 115.199 36.081 114.609 36.4257C116.889 37.3528 121.67 37.9806 129.779 37.9293C134.007 37.9022 138.407 37.147 142.261 35.756Z" fill="#293462"/>
</svg>
